<?xml version="1.0" encoding="UTF-8"?>
<svg xmlns="http://www.w3.org/2000/svg"
     viewBox="0 0 800 360" width="800" height="360">

  <style>
    text { font-family: ui-monospace, 'SFMono-Regular', Menlo, monospace; }
  </style>

  <!-- background -->
  <rect width="800" height="360" fill="#ffffff"/>

  <!-- chart title -->
  <text x="88" y="30"
        font-size="14" font-weight="600" fill="#111827">FindOverlappingIter  —  Memory (B/op)</text>

  <!-- axes -->
  <line x1="88" y1="44" x2="88" y2="289"
        stroke="#9ca3af" stroke-width="1"/>
  <line x1="87" y1="288" x2="780" y2="288"
        stroke="#9ca3af" stroke-width="1"/>

  <!-- grid + Y labels -->
  
    <line x1="88" y1="288.00" x2="780" y2="288.00"
          stroke="#e5e7eb" stroke-dasharray="4 3" stroke-width="1"/>
    <text x="82" y="292.00"
          text-anchor="end" font-size="11" fill="#9ca3af">6 B</text>
    <line x1="88" y1="227.00" x2="780" y2="227.00"
          stroke="#e5e7eb" stroke-dasharray="4 3" stroke-width="1"/>
    <text x="82" y="231.00"
          text-anchor="end" font-size="11" fill="#9ca3af">8 B</text>
    <line x1="88" y1="166.00" x2="780" y2="166.00"
          stroke="#e5e7eb" stroke-dasharray="4 3" stroke-width="1"/>
    <text x="82" y="170.00"
          text-anchor="end" font-size="11" fill="#9ca3af">11 B</text>
    <line x1="88" y1="105.00" x2="780" y2="105.00"
          stroke="#e5e7eb" stroke-dasharray="4 3" stroke-width="1"/>
    <text x="82" y="109.00"
          text-anchor="end" font-size="11" fill="#9ca3af">13 B</text>
    <line x1="88" y1="44.00" x2="780" y2="44.00"
          stroke="#e5e7eb" stroke-dasharray="4 3" stroke-width="1"/>
    <text x="82" y="48.00"
          text-anchor="end" font-size="11" fill="#9ca3af">15 B</text>
    <text x="13" y="166.00" text-anchor="middle" font-size="11" fill="#6b7280"
          transform="rotate(-90 13 166.00)">Memory (B/op)</text>

  <!-- X labels -->
  
    <text x="88.00" y="304" text-anchor="end" font-size="10" fill="#6b7280"
          transform="rotate(-40 88.00 304)">f73649a</text>
    <text x="780.00" y="304" text-anchor="end" font-size="10" fill="#6b7280"
          transform="rotate(-40 780.00 304)">f73649a</text>

  <!-- data series -->
  
    <!-- series: NFA_Small -->
    <path d="M 88.00 67.61 L 780.00 67.61"
          fill="none" stroke="#e69f00" stroke-width="2.5"
          stroke-linejoin="round" stroke-linecap="round"/>
      <circle cx="88.00" cy="67.61" r="4.5"
              fill="#e69f00" stroke="white" stroke-width="1.5">
        <title>NFA_Small @ f73649a: 14</title>
      </circle>
      <circle cx="780.00" cy="67.61" r="4.5"
              fill="#e69f00" stroke="white" stroke-width="1.5">
        <title>NFA_Small @ f73649a: 14</title>
      </circle>
    <!-- series: DFA_Small -->
    <path d="M 88.00 236.28 L 780.00 236.28"
          fill="none" stroke="#56b4e9" stroke-width="2.5"
          stroke-linejoin="round" stroke-linecap="round"/>
      <circle cx="88.00" cy="236.28" r="4.5"
              fill="#56b4e9" stroke="white" stroke-width="1.5">
        <title>DFA_Small @ f73649a: 8</title>
      </circle>
      <circle cx="780.00" cy="236.28" r="4.5"
              fill="#56b4e9" stroke="white" stroke-width="1.5">
        <title>DFA_Small @ f73649a: 8</title>
      </circle>
    <!-- series: NFA_Medium -->
    <path d="M 88.00 123.83 L 780.00 123.83"
          fill="none" stroke="#009e73" stroke-width="2.5"
          stroke-linejoin="round" stroke-linecap="round"/>
      <circle cx="88.00" cy="123.83" r="4.5"
              fill="#009e73" stroke="white" stroke-width="1.5">
        <title>NFA_Medium @ f73649a: 12</title>
      </circle>
      <circle cx="780.00" cy="123.83" r="4.5"
              fill="#009e73" stroke="white" stroke-width="1.5">
        <title>NFA_Medium @ f73649a: 12</title>
      </circle>
    <!-- series: DFA_Medium -->
    <path d="M 88.00 264.39 L 780.00 264.39"
          fill="none" stroke="#cc79a7" stroke-width="2.5"
          stroke-linejoin="round" stroke-linecap="round"/>
      <circle cx="88.00" cy="264.39" r="4.5"
              fill="#cc79a7" stroke="white" stroke-width="1.5">
        <title>DFA_Medium @ f73649a: 7</title>
      </circle>
      <circle cx="780.00" cy="264.39" r="4.5"
              fill="#cc79a7" stroke="white" stroke-width="1.5">
        <title>DFA_Medium @ f73649a: 7</title>
      </circle>

  <!-- legend -->
  
    <rect x="94" y="331" width="12" height="10" rx="2" fill="#e69f00"/>
    <text x="110" y="340" font-size="12" fill="#374151">NFA_Small</text>
    <rect x="264" y="331" width="12" height="10" rx="2" fill="#56b4e9"/>
    <text x="280" y="340" font-size="12" fill="#374151">DFA_Small</text>
    <rect x="434" y="331" width="12" height="10" rx="2" fill="#009e73"/>
    <text x="450" y="340" font-size="12" fill="#374151">NFA_Medium</text>
    <rect x="604" y="331" width="12" height="10" rx="2" fill="#cc79a7"/>
    <text x="620" y="340" font-size="12" fill="#374151">DFA_Medium</text>

</svg>
