<?xml version="1.0" encoding="UTF-8"?>
<svg xmlns="http://www.w3.org/2000/svg"
     viewBox="0 0 800 360" width="800" height="360">

  <style>
    text { font-family: ui-monospace, 'SFMono-Regular', Menlo, monospace; }
  </style>

  <!-- background -->
  <rect width="800" height="360" fill="#ffffff"/>

  <!-- chart title -->
  <text x="88" y="30"
        font-size="14" font-weight="600" fill="#111827">FindOverlappingIter  —  allocs/op</text>

  <!-- axes -->
  <line x1="88" y1="44" x2="88" y2="289"
        stroke="#9ca3af" stroke-width="1"/>
  <line x1="87" y1="288" x2="780" y2="288"
        stroke="#9ca3af" stroke-width="1"/>

  <!-- grid + Y labels -->
  
    <line x1="88" y1="288.00" x2="780" y2="288.00"
          stroke="#e5e7eb" stroke-dasharray="4 3" stroke-width="1"/>
    <text x="82" y="292.00"
          text-anchor="end" font-size="11" fill="#9ca3af">0</text>
    <line x1="88" y1="227.00" x2="780" y2="227.00"
          stroke="#e5e7eb" stroke-dasharray="4 3" stroke-width="1"/>
    <text x="82" y="231.00"
          text-anchor="end" font-size="11" fill="#9ca3af">0</text>
    <line x1="88" y1="166.00" x2="780" y2="166.00"
          stroke="#e5e7eb" stroke-dasharray="4 3" stroke-width="1"/>
    <text x="82" y="170.00"
          text-anchor="end" font-size="11" fill="#9ca3af">1</text>
    <line x1="88" y1="105.00" x2="780" y2="105.00"
          stroke="#e5e7eb" stroke-dasharray="4 3" stroke-width="1"/>
    <text x="82" y="109.00"
          text-anchor="end" font-size="11" fill="#9ca3af">1</text>
    <line x1="88" y1="44.00" x2="780" y2="44.00"
          stroke="#e5e7eb" stroke-dasharray="4 3" stroke-width="1"/>
    <text x="82" y="48.00"
          text-anchor="end" font-size="11" fill="#9ca3af">1</text>
    <text x="13" y="166.00" text-anchor="middle" font-size="11" fill="#6b7280"
          transform="rotate(-90 13 166.00)">allocs/op</text>

  <!-- X labels -->
  
    <text x="88.00" y="304" text-anchor="end" font-size="10" fill="#6b7280"
          transform="rotate(-40 88.00 304)">f73649a</text>
    <text x="134.13" y="304" text-anchor="end" font-size="10" fill="#6b7280"
          transform="rotate(-40 134.13 304)">f73649a</text>
    <text x="180.27" y="304" text-anchor="end" font-size="10" fill="#6b7280"
          transform="rotate(-40 180.27 304)">06d74f8</text>
    <text x="226.40" y="304" text-anchor="end" font-size="10" fill="#6b7280"
          transform="rotate(-40 226.40 304)">06d74f8</text>
    <text x="272.53" y="304" text-anchor="end" font-size="10" fill="#6b7280"
          transform="rotate(-40 272.53 304)">06d74f8</text>
    <text x="318.67" y="304" text-anchor="end" font-size="10" fill="#6b7280"
          transform="rotate(-40 318.67 304)">9d63c5e</text>
    <text x="364.80" y="304" text-anchor="end" font-size="10" fill="#6b7280"
          transform="rotate(-40 364.80 304)">9d63c5e</text>
    <text x="410.93" y="304" text-anchor="end" font-size="10" fill="#6b7280"
          transform="rotate(-40 410.93 304)">9d63c5e</text>
    <text x="457.07" y="304" text-anchor="end" font-size="10" fill="#6b7280"
          transform="rotate(-40 457.07 304)">9d63c5e</text>
    <text x="503.20" y="304" text-anchor="end" font-size="10" fill="#6b7280"
          transform="rotate(-40 503.20 304)">6fe6d69</text>
    <text x="549.33" y="304" text-anchor="end" font-size="10" fill="#6b7280"
          transform="rotate(-40 549.33 304)">6fe6d69</text>
    <text x="595.47" y="304" text-anchor="end" font-size="10" fill="#6b7280"
          transform="rotate(-40 595.47 304)">6fe6d69</text>
    <text x="641.60" y="304" text-anchor="end" font-size="10" fill="#6b7280"
          transform="rotate(-40 641.60 304)">6fe6d69</text>
    <text x="687.73" y="304" text-anchor="end" font-size="10" fill="#6b7280"
          transform="rotate(-40 687.73 304)">6fe6d69</text>
    <text x="733.87" y="304" text-anchor="end" font-size="10" fill="#6b7280"
          transform="rotate(-40 733.87 304)">6fe6d69</text>
    <text x="780.00" y="304" text-anchor="end" font-size="10" fill="#6b7280"
          transform="rotate(-40 780.00 304)">6fe6d69</text>

  <!-- data series -->
  
    <!-- series: NFA_Small -->
    <path d="M 88.00 288.00 L 134.13 288.00 L 180.27 288.00 L 226.40 288.00 L 272.53 288.00 L 318.67 288.00 L 364.80 288.00 L 410.93 288.00 L 457.07 288.00 L 503.20 288.00 L 549.33 288.00 L 595.47 288.00 L 641.60 288.00 L 687.73 288.00 L 733.87 288.00 L 780.00 288.00"
          fill="none" stroke="#e69f00" stroke-width="2.5"
          stroke-linejoin="round" stroke-linecap="round"/>
      <circle cx="88.00" cy="288.00" r="4.5"
              fill="#e69f00" stroke="white" stroke-width="1.5">
        <title>NFA_Small @ f73649a: 0</title>
      </circle>
      <circle cx="134.13" cy="288.00" r="4.5"
              fill="#e69f00" stroke="white" stroke-width="1.5">
        <title>NFA_Small @ f73649a: 0</title>
      </circle>
      <circle cx="180.27" cy="288.00" r="4.5"
              fill="#e69f00" stroke="white" stroke-width="1.5">
        <title>NFA_Small @ 06d74f8: 0</title>
      </circle>
      <circle cx="226.40" cy="288.00" r="4.5"
              fill="#e69f00" stroke="white" stroke-width="1.5">
        <title>NFA_Small @ 06d74f8: 0</title>
      </circle>
      <circle cx="272.53" cy="288.00" r="4.5"
              fill="#e69f00" stroke="white" stroke-width="1.5">
        <title>NFA_Small @ 06d74f8: 0</title>
      </circle>
      <circle cx="318.67" cy="288.00" r="4.5"
              fill="#e69f00" stroke="white" stroke-width="1.5">
        <title>NFA_Small @ 9d63c5e: 0</title>
      </circle>
      <circle cx="364.80" cy="288.00" r="4.5"
              fill="#e69f00" stroke="white" stroke-width="1.5">
        <title>NFA_Small @ 9d63c5e: 0</title>
      </circle>
      <circle cx="410.93" cy="288.00" r="4.5"
              fill="#e69f00" stroke="white" stroke-width="1.5">
        <title>NFA_Small @ 9d63c5e: 0</title>
      </circle>
      <circle cx="457.07" cy="288.00" r="4.5"
              fill="#e69f00" stroke="white" stroke-width="1.5">
        <title>NFA_Small @ 9d63c5e: 0</title>
      </circle>
      <circle cx="503.20" cy="288.00" r="4.5"
              fill="#e69f00" stroke="white" stroke-width="1.5">
        <title>NFA_Small @ 6fe6d69: 0</title>
      </circle>
      <circle cx="549.33" cy="288.00" r="4.5"
              fill="#e69f00" stroke="white" stroke-width="1.5">
        <title>NFA_Small @ 6fe6d69: 0</title>
      </circle>
      <circle cx="595.47" cy="288.00" r="4.5"
              fill="#e69f00" stroke="white" stroke-width="1.5">
        <title>NFA_Small @ 6fe6d69: 0</title>
      </circle>
      <circle cx="641.60" cy="288.00" r="4.5"
              fill="#e69f00" stroke="white" stroke-width="1.5">
        <title>NFA_Small @ 6fe6d69: 0</title>
      </circle>
      <circle cx="687.73" cy="288.00" r="4.5"
              fill="#e69f00" stroke="white" stroke-width="1.5">
        <title>NFA_Small @ 6fe6d69: 0</title>
      </circle>
      <circle cx="733.87" cy="288.00" r="4.5"
              fill="#e69f00" stroke="white" stroke-width="1.5">
        <title>NFA_Small @ 6fe6d69: 0</title>
      </circle>
      <circle cx="780.00" cy="288.00" r="4.5"
              fill="#e69f00" stroke="white" stroke-width="1.5">
        <title>NFA_Small @ 6fe6d69: 0</title>
      </circle>
    <!-- series: DFA_Small -->
    <path d="M 88.00 288.00 L 134.13 288.00 L 180.27 288.00 L 226.40 288.00 L 272.53 288.00 L 318.67 288.00 L 364.80 288.00 L 410.93 288.00 L 457.07 288.00 L 503.20 288.00 L 549.33 288.00 L 595.47 288.00 L 641.60 288.00 L 687.73 288.00 L 733.87 288.00 L 780.00 288.00"
          fill="none" stroke="#56b4e9" stroke-width="2.5"
          stroke-linejoin="round" stroke-linecap="round"/>
      <circle cx="88.00" cy="288.00" r="4.5"
              fill="#56b4e9" stroke="white" stroke-width="1.5">
        <title>DFA_Small @ f73649a: 0</title>
      </circle>
      <circle cx="134.13" cy="288.00" r="4.5"
              fill="#56b4e9" stroke="white" stroke-width="1.5">
        <title>DFA_Small @ f73649a: 0</title>
      </circle>
      <circle cx="180.27" cy="288.00" r="4.5"
              fill="#56b4e9" stroke="white" stroke-width="1.5">
        <title>DFA_Small @ 06d74f8: 0</title>
      </circle>
      <circle cx="226.40" cy="288.00" r="4.5"
              fill="#56b4e9" stroke="white" stroke-width="1.5">
        <title>DFA_Small @ 06d74f8: 0</title>
      </circle>
      <circle cx="272.53" cy="288.00" r="4.5"
              fill="#56b4e9" stroke="white" stroke-width="1.5">
        <title>DFA_Small @ 06d74f8: 0</title>
      </circle>
      <circle cx="318.67" cy="288.00" r="4.5"
              fill="#56b4e9" stroke="white" stroke-width="1.5">
        <title>DFA_Small @ 9d63c5e: 0</title>
      </circle>
      <circle cx="364.80" cy="288.00" r="4.5"
              fill="#56b4e9" stroke="white" stroke-width="1.5">
        <title>DFA_Small @ 9d63c5e: 0</title>
      </circle>
      <circle cx="410.93" cy="288.00" r="4.5"
              fill="#56b4e9" stroke="white" stroke-width="1.5">
        <title>DFA_Small @ 9d63c5e: 0</title>
      </circle>
      <circle cx="457.07" cy="288.00" r="4.5"
              fill="#56b4e9" stroke="white" stroke-width="1.5">
        <title>DFA_Small @ 9d63c5e: 0</title>
      </circle>
      <circle cx="503.20" cy="288.00" r="4.5"
              fill="#56b4e9" stroke="white" stroke-width="1.5">
        <title>DFA_Small @ 6fe6d69: 0</title>
      </circle>
      <circle cx="549.33" cy="288.00" r="4.5"
              fill="#56b4e9" stroke="white" stroke-width="1.5">
        <title>DFA_Small @ 6fe6d69: 0</title>
      </circle>
      <circle cx="595.47" cy="288.00" r="4.5"
              fill="#56b4e9" stroke="white" stroke-width="1.5">
        <title>DFA_Small @ 6fe6d69: 0</title>
      </circle>
      <circle cx="641.60" cy="288.00" r="4.5"
              fill="#56b4e9" stroke="white" stroke-width="1.5">
        <title>DFA_Small @ 6fe6d69: 0</title>
      </circle>
      <circle cx="687.73" cy="288.00" r="4.5"
              fill="#56b4e9" stroke="white" stroke-width="1.5">
        <title>DFA_Small @ 6fe6d69: 0</title>
      </circle>
      <circle cx="733.87" cy="288.00" r="4.5"
              fill="#56b4e9" stroke="white" stroke-width="1.5">
        <title>DFA_Small @ 6fe6d69: 0</title>
      </circle>
      <circle cx="780.00" cy="288.00" r="4.5"
              fill="#56b4e9" stroke="white" stroke-width="1.5">
        <title>DFA_Small @ 6fe6d69: 0</title>
      </circle>
    <!-- series: NFA_Medium -->
    <path d="M 88.00 288.00 L 134.13 288.00 L 180.27 288.00 L 226.40 288.00 L 272.53 288.00 L 318.67 288.00 L 364.80 288.00 L 410.93 288.00 L 457.07 288.00 L 503.20 288.00 L 549.33 288.00 L 595.47 288.00 L 641.60 288.00 L 687.73 288.00 L 733.87 288.00 L 780.00 288.00"
          fill="none" stroke="#009e73" stroke-width="2.5"
          stroke-linejoin="round" stroke-linecap="round"/>
      <circle cx="88.00" cy="288.00" r="4.5"
              fill="#009e73" stroke="white" stroke-width="1.5">
        <title>NFA_Medium @ f73649a: 0</title>
      </circle>
      <circle cx="134.13" cy="288.00" r="4.5"
              fill="#009e73" stroke="white" stroke-width="1.5">
        <title>NFA_Medium @ f73649a: 0</title>
      </circle>
      <circle cx="180.27" cy="288.00" r="4.5"
              fill="#009e73" stroke="white" stroke-width="1.5">
        <title>NFA_Medium @ 06d74f8: 0</title>
      </circle>
      <circle cx="226.40" cy="288.00" r="4.5"
              fill="#009e73" stroke="white" stroke-width="1.5">
        <title>NFA_Medium @ 06d74f8: 0</title>
      </circle>
      <circle cx="272.53" cy="288.00" r="4.5"
              fill="#009e73" stroke="white" stroke-width="1.5">
        <title>NFA_Medium @ 06d74f8: 0</title>
      </circle>
      <circle cx="318.67" cy="288.00" r="4.5"
              fill="#009e73" stroke="white" stroke-width="1.5">
        <title>NFA_Medium @ 9d63c5e: 0</title>
      </circle>
      <circle cx="364.80" cy="288.00" r="4.5"
              fill="#009e73" stroke="white" stroke-width="1.5">
        <title>NFA_Medium @ 9d63c5e: 0</title>
      </circle>
      <circle cx="410.93" cy="288.00" r="4.5"
              fill="#009e73" stroke="white" stroke-width="1.5">
        <title>NFA_Medium @ 9d63c5e: 0</title>
      </circle>
      <circle cx="457.07" cy="288.00" r="4.5"
              fill="#009e73" stroke="white" stroke-width="1.5">
        <title>NFA_Medium @ 9d63c5e: 0</title>
      </circle>
      <circle cx="503.20" cy="288.00" r="4.5"
              fill="#009e73" stroke="white" stroke-width="1.5">
        <title>NFA_Medium @ 6fe6d69: 0</title>
      </circle>
      <circle cx="549.33" cy="288.00" r="4.5"
              fill="#009e73" stroke="white" stroke-width="1.5">
        <title>NFA_Medium @ 6fe6d69: 0</title>
      </circle>
      <circle cx="595.47" cy="288.00" r="4.5"
              fill="#009e73" stroke="white" stroke-width="1.5">
        <title>NFA_Medium @ 6fe6d69: 0</title>
      </circle>
      <circle cx="641.60" cy="288.00" r="4.5"
              fill="#009e73" stroke="white" stroke-width="1.5">
        <title>NFA_Medium @ 6fe6d69: 0</title>
      </circle>
      <circle cx="687.73" cy="288.00" r="4.5"
              fill="#009e73" stroke="white" stroke-width="1.5">
        <title>NFA_Medium @ 6fe6d69: 0</title>
      </circle>
      <circle cx="733.87" cy="288.00" r="4.5"
              fill="#009e73" stroke="white" stroke-width="1.5">
        <title>NFA_Medium @ 6fe6d69: 0</title>
      </circle>
      <circle cx="780.00" cy="288.00" r="4.5"
              fill="#009e73" stroke="white" stroke-width="1.5">
        <title>NFA_Medium @ 6fe6d69: 0</title>
      </circle>
    <!-- series: DFA_Medium -->
    <path d="M 88.00 288.00 L 134.13 288.00 L 180.27 288.00 L 226.40 288.00 L 272.53 288.00 L 318.67 288.00 L 364.80 288.00 L 410.93 288.00 L 457.07 288.00 L 503.20 288.00 L 549.33 288.00 L 595.47 288.00 L 641.60 288.00 L 687.73 288.00 L 733.87 288.00 L 780.00 288.00"
          fill="none" stroke="#cc79a7" stroke-width="2.5"
          stroke-linejoin="round" stroke-linecap="round"/>
      <circle cx="88.00" cy="288.00" r="4.5"
              fill="#cc79a7" stroke="white" stroke-width="1.5">
        <title>DFA_Medium @ f73649a: 0</title>
      </circle>
      <circle cx="134.13" cy="288.00" r="4.5"
              fill="#cc79a7" stroke="white" stroke-width="1.5">
        <title>DFA_Medium @ f73649a: 0</title>
      </circle>
      <circle cx="180.27" cy="288.00" r="4.5"
              fill="#cc79a7" stroke="white" stroke-width="1.5">
        <title>DFA_Medium @ 06d74f8: 0</title>
      </circle>
      <circle cx="226.40" cy="288.00" r="4.5"
              fill="#cc79a7" stroke="white" stroke-width="1.5">
        <title>DFA_Medium @ 06d74f8: 0</title>
      </circle>
      <circle cx="272.53" cy="288.00" r="4.5"
              fill="#cc79a7" stroke="white" stroke-width="1.5">
        <title>DFA_Medium @ 06d74f8: 0</title>
      </circle>
      <circle cx="318.67" cy="288.00" r="4.5"
              fill="#cc79a7" stroke="white" stroke-width="1.5">
        <title>DFA_Medium @ 9d63c5e: 0</title>
      </circle>
      <circle cx="364.80" cy="288.00" r="4.5"
              fill="#cc79a7" stroke="white" stroke-width="1.5">
        <title>DFA_Medium @ 9d63c5e: 0</title>
      </circle>
      <circle cx="410.93" cy="288.00" r="4.5"
              fill="#cc79a7" stroke="white" stroke-width="1.5">
        <title>DFA_Medium @ 9d63c5e: 0</title>
      </circle>
      <circle cx="457.07" cy="288.00" r="4.5"
              fill="#cc79a7" stroke="white" stroke-width="1.5">
        <title>DFA_Medium @ 9d63c5e: 0</title>
      </circle>
      <circle cx="503.20" cy="288.00" r="4.5"
              fill="#cc79a7" stroke="white" stroke-width="1.5">
        <title>DFA_Medium @ 6fe6d69: 0</title>
      </circle>
      <circle cx="549.33" cy="288.00" r="4.5"
              fill="#cc79a7" stroke="white" stroke-width="1.5">
        <title>DFA_Medium @ 6fe6d69: 0</title>
      </circle>
      <circle cx="595.47" cy="288.00" r="4.5"
              fill="#cc79a7" stroke="white" stroke-width="1.5">
        <title>DFA_Medium @ 6fe6d69: 0</title>
      </circle>
      <circle cx="641.60" cy="288.00" r="4.5"
              fill="#cc79a7" stroke="white" stroke-width="1.5">
        <title>DFA_Medium @ 6fe6d69: 0</title>
      </circle>
      <circle cx="687.73" cy="288.00" r="4.5"
              fill="#cc79a7" stroke="white" stroke-width="1.5">
        <title>DFA_Medium @ 6fe6d69: 0</title>
      </circle>
      <circle cx="733.87" cy="288.00" r="4.5"
              fill="#cc79a7" stroke="white" stroke-width="1.5">
        <title>DFA_Medium @ 6fe6d69: 0</title>
      </circle>
      <circle cx="780.00" cy="288.00" r="4.5"
              fill="#cc79a7" stroke="white" stroke-width="1.5">
        <title>DFA_Medium @ 6fe6d69: 0</title>
      </circle>

  <!-- legend -->
  
    <rect x="94" y="331" width="12" height="10" rx="2" fill="#e69f00"/>
    <text x="110" y="340" font-size="12" fill="#374151">NFA_Small</text>
    <rect x="264" y="331" width="12" height="10" rx="2" fill="#56b4e9"/>
    <text x="280" y="340" font-size="12" fill="#374151">DFA_Small</text>
    <rect x="434" y="331" width="12" height="10" rx="2" fill="#009e73"/>
    <text x="450" y="340" font-size="12" fill="#374151">NFA_Medium</text>
    <rect x="604" y="331" width="12" height="10" rx="2" fill="#cc79a7"/>
    <text x="620" y="340" font-size="12" fill="#374151">DFA_Medium</text>

</svg>
